# xmcd
#
# Track frame offsets:
#	182
#	15002
#	30295
#	43367
#	54710
#	65455
#	78010
#	89087
#	104010
#	113247
#	123365
#	135297
#	145555
#	159280
#	174417
#	187807
#
# Disc length: 2677
#
# Revision: 4
# Processed by: cddbd v1.5.1PL0 Copyright (c) Steve Scherf et al.
# Submitted via: audiograbber 1.80.04
# Normalized: r3:DSETVAR1
#
DISCID=c10a7310
DTITLE=Various Artist - Classic Country
DYEAR=1996
DGENRE=Country
TTITLE0=Roger Miller - Me and Bobby McGhee
TTITLE1=Crystal Gayle - Ready For The Times To Get Better
TTITLE2=Johnnie Darrell - Son Of Hickory Holler's Tramp
TTITLE3=The Kendalls - Heaven's Just a Sin Away
TTITLE4=Patsy Cline - I Can See An Angel
TTITLE5=Kenny Rogers and The First Edition - Reuben James
TTITLE6=Roher Miller - King Of The Road
TTITLE7=Jeannie C Riley - Harper Valley PTA
TTITLE8=The Kendalls - Blue Blue Day
TTITLE9=Porter Wagoner - Green Green Grass of Home
TTITLE10=Anne Muray - The Last Thing On my mind
TTITLE11=Carl Perkins - Daddy Sang Bass
TTITLE12=Willie nelson - A Moment Isn't Very Long
TTITLE13=Lynn Anderson - Desperado
TTITLE14=Johny Russell - Catfish John
TTITLE15=Dottie West - D.I.V.O.R.C.E.
EXTD=
EXTT0=
EXTT1=
EXTT2=
EXTT3=
EXTT4=
EXTT5=
EXTT6=
EXTT7=
EXTT8=
EXTT9=
EXTT10=
EXTT11=
EXTT12=
EXTT13=
EXTT14=
EXTT15=
PLAYORDER=
